<?xml version="1.0" standalone="no"?>
<!DOCTYPE svg PUBLIC "-//W3C//DTD SVG 20010904//EN"
 "http://www.w3.org/TR/2001/REC-SVG-20010904/DTD/svg10.dtd">
<svg version="1.0" xmlns="http://www.w3.org/2000/svg"
 width="1000.000000pt" height="1000.000000pt" viewBox="0 0 1000.000000 1000.000000"
 preserveAspectRatio="xMidYMid meet">
<metadata>
Created by potrace 1.14, written by Peter Selinger 2001-2017
</metadata>
<g transform="translate(0.000000,1000.000000) scale(0.100000,-0.100000)"
fill="#000000" stroke="none">
<path d="M4835 9519 c-166 -9 -260 -23 -397 -58 -123 -31 -384 -115 -402 -130
-6 -5 -29 -14 -51 -21 -52 -17 -308 -145 -360 -180 -22 -15 -66 -42 -99 -61
-32 -19 -79 -52 -105 -74 -25 -22 -64 -54 -86 -70 -100 -72 -378 -333 -400
-375 -8 -14 -27 -40 -44 -58 -17 -19 -50 -61 -73 -95 -23 -34 -74 -105 -113
-157 -40 -52 -80 -111 -90 -130 -10 -19 -28 -48 -40 -65 -72 -100 -196 -442
-254 -705 -16 -74 -39 -176 -50 -227 -15 -69 -39 -129 -96 -242 -41 -83 -75
-157 -75 -165 0 -48 -34 -60 -485 -161 -33 -8 -114 -25 -180 -40 -66 -14 -228
-50 -360 -80 -132 -30 -292 -67 -355 -81 -541 -121 -525 -116 -556 -176 -40
-78 -9 -123 158 -235 73 -49 300 -201 503 -338 561 -377 598 -402 623 -409 12
-4 22 -14 22 -22 0 -8 -55 -93 -122 -189 -68 -97 -163 -234 -213 -305 -49 -71
-108 -155 -130 -186 -22 -32 -120 -173 -219 -314 -98 -140 -183 -265 -189
-277 -5 -13 -14 -23 -19 -23 -4 0 -8 -13 -8 -30 0 -16 4 -30 9 -30 5 0 14 -14
21 -30 7 -17 25 -37 39 -44 31 -16 196 -72 341 -116 170 -51 513 -160 538
-170 l22 -10 0 -397 c0 -219 3 -684 7 -1034 l6 -636 25 -28 c25 -29 98 -56
352 -126 58 -16 132 -38 165 -49 62 -21 274 -85 335 -102 19 -5 132 -38 250
-73 118 -36 343 -102 500 -149 453 -134 624 -185 800 -238 91 -27 201 -60 245
-73 44 -13 166 -49 270 -80 105 -31 258 -76 340 -100 83 -25 201 -60 264 -79
l113 -34 267 74 c146 41 289 81 316 88 28 8 88 25 135 39 47 13 164 46 260 72
96 26 202 55 235 65 106 31 207 59 360 101 83 22 182 50 220 60 39 11 117 33
175 49 58 15 267 74 465 130 318 89 499 139 670 184 110 29 143 52 164 115 8
25 11 326 11 1090 0 581 3 1066 6 1078 5 18 25 29 98 52 246 80 825 280 854
295 34 17 62 66 62 106 0 47 23 18 -691 854 -290 341 -264 306 -243 326 11 10
44 38 76 62 31 24 118 97 193 163 76 66 154 134 174 150 21 17 66 56 102 87
35 31 138 120 229 199 315 271 340 294 351 322 6 15 19 32 28 37 11 7 13 12 5
17 -6 5 -18 22 -27 38 -25 49 -59 73 -122 89 -295 71 -1475 369 -1494 377
l-24 10 8 147 c11 191 12 531 2 652 -26 311 -176 651 -448 1015 -37 50 -154
177 -261 283 -195 194 -290 270 -428 341 -36 19 -83 46 -105 60 -49 32 -292
148 -400 192 -44 17 -98 40 -120 49 -156 71 -566 178 -725 190 -63 4 -122 11
-130 13 -26 9 -500 14 -625 6z m-699 -594 c84 -5 145 -27 197 -71 15 -13 44
-26 65 -29 34 -6 61 -12 180 -44 33 -9 48 -21 68 -53 l26 -41 61 6 c60 5 61 5
99 -33 31 -31 38 -45 38 -77 0 -32 7 -46 39 -77 40 -39 41 -43 19 -117 -8 -30
-7 -41 7 -63 11 -16 24 -25 32 -21 25 9 35 -6 17 -26 -12 -13 -13 -19 -4 -19
9 0 10 -3 1 -14 -9 -10 -8 -16 4 -26 8 -7 15 -20 15 -30 0 -10 15 -31 34 -48
40 -35 66 -81 66 -115 0 -13 8 -35 18 -48 9 -13 22 -33 28 -44 6 -11 19 -22
29 -24 30 -5 45 -27 45 -63 0 -55 10 -75 45 -94 18 -10 39 -27 45 -38 38 -72
66 -106 86 -106 22 0 74 -69 74 -99 0 -15 9 -36 20 -46 11 -10 20 -24 20 -32
0 -8 7 -28 16 -44 10 -20 17 -66 19 -132 l3 -102 32 -5 c38 -6 97 -62 105
-100 9 -40 -19 -93 -78 -146 -39 -35 -65 -71 -93 -129 -43 -88 -110 -185 -129
-185 -23 0 -35 -53 -40 -178 -7 -168 -10 -171 -170 -187 -125 -13 -157 -19
-162 -31 -18 -47 -175 -72 -360 -57 -115 9 -134 13 -184 41 -46 27 -66 32
-119 32 -57 0 -71 -4 -134 -42 -72 -43 -91 -61 -91 -88 0 -21 -39 -24 -68 -5
-23 14 -29 15 -61 1 -34 -14 -36 -18 -36 -60 0 -39 -3 -46 -20 -46 -21 0 -27
-15 -10 -25 5 -3 19 4 31 16 17 17 29 20 61 16 22 -3 56 0 77 7 23 8 46 10 66
4 51 -14 306 -27 381 -19 69 8 103 20 135 47 25 22 110 44 172 44 62 0 100
-14 132 -50 11 -12 45 -35 75 -50 30 -16 77 -47 104 -69 26 -23 52 -41 57 -41
5 0 20 -22 33 -48 33 -65 48 -75 112 -77 40 -2 61 -8 77 -23 13 -12 60 -32
107 -46 75 -22 88 -29 127 -73 41 -46 73 -120 73 -169 0 -13 6 -48 14 -78 8
-30 18 -87 22 -125 8 -81 -4 -109 -57 -137 -27 -13 -30 -20 -26 -44 6 -29 53
-99 121 -179 21 -25 45 -61 53 -81 8 -19 22 -43 31 -53 16 -18 15 -20 -6 -37
-13 -11 -44 -22 -70 -26 -65 -9 -84 -24 -105 -82 -20 -55 -25 -59 -109 -77
-47 -10 -61 -10 -75 1 -10 7 -35 14 -55 14 -20 0 -40 5 -43 10 -3 6 -17 10
-31 10 -28 0 -33 -30 -9 -50 8 -7 15 -21 15 -31 0 -10 5 -21 10 -24 14 -9 13
-128 -2 -143 -7 -7 -22 -12 -35 -12 -13 0 -50 -9 -81 -19 -54 -19 -62 -19
-102 -5 -25 9 -63 19 -85 23 -37 8 -289 73 -410 107 -27 8 -81 23 -120 33 -38
11 -149 43 -245 71 -303 91 -373 110 -400 110 -14 0 -30 4 -36 9 -5 5 -31 16
-59 23 -48 14 -51 18 -82 80 -36 74 -72 108 -117 108 -20 0 -41 9 -59 25 -15
14 -27 23 -27 19 0 -3 -7 -1 -15 6 -12 10 -15 9 -15 -6 0 -11 -7 -28 -15 -38
-8 -11 -15 -36 -15 -57 l0 -37 -109 24 c-60 13 -162 39 -227 58 -66 19 -180
51 -254 70 -74 19 -175 46 -225 60 -49 14 -117 33 -150 42 -92 25 -255 74
-303 92 -36 13 -43 19 -39 36 3 12 16 68 30 126 77 314 87 368 93 501 5 98 2
164 -10 249 -17 121 -21 228 -8 246 4 6 22 14 41 18 35 6 68 -4 276 -89 44
-18 97 -38 118 -45 46 -14 64 -42 41 -64 -18 -19 -15 -19 -171 -16 -77 1 -129
-3 -143 -10 -30 -16 -62 -92 -64 -152 -1 -44 3 -53 32 -79 24 -21 42 -29 71
-29 58 0 68 7 101 66 54 94 115 120 165 69 20 -19 25 -34 25 -75 0 -55 21 -86
62 -94 182 -35 273 -44 324 -30 12 3 27 16 34 30 25 46 -9 108 -128 232 -18
19 -40 57 -49 85 -21 63 -110 151 -256 250 -56 39 -121 86 -143 106 -27 24
-67 44 -117 60 -54 17 -89 36 -124 66 -45 40 -48 46 -47 88 1 46 8 69 51 166
27 61 50 121 63 166 39 131 53 189 61 250 21 164 59 284 150 475 73 151 76
158 134 236 29 39 62 89 74 113 12 23 28 44 36 48 8 3 24 26 35 51 11 24 27
50 35 56 8 6 20 23 28 38 14 29 76 101 195 227 39 43 72 82 72 87 1 18 37 51
140 128 58 44 107 82 110 86 12 17 115 81 139 86 14 4 60 25 101 48 82 45 161
66 230 60 25 -2 81 -6 126 -9z m-2102 -2652 c3 -82 11 -188 16 -238 21 -194
23 -297 6 -425 -10 -69 -22 -145 -27 -170 -6 -25 -13 -61 -17 -80 -4 -19 -12
-35 -17 -35 -13 0 -174 44 -203 56 -13 5 -81 9 -153 9 -101 0 -137 4 -162 17
-26 13 -332 214 -437 286 -79 55 -291 198 -395 267 -158 105 -167 112 -158
120 4 4 44 14 88 23 73 15 223 49 430 98 44 10 123 28 175 39 52 11 185 40
295 66 110 25 241 54 290 65 50 10 113 25 140 33 28 8 66 15 86 15 l36 1 7
-147z m6774 -104 c337 -84 611 -156 610 -160 -2 -4 -22 -22 -45 -41 -22 -18
-103 -87 -178 -153 -76 -66 -156 -134 -177 -152 -22 -18 -64 -54 -92 -80 -29
-26 -64 -57 -77 -68 -13 -11 -85 -72 -159 -136 l-135 -116 -125 -31 c-69 -18
-128 -32 -132 -32 -5 0 -8 78 -8 173 0 192 -7 224 -66 338 -25 47 -56 86 -96
122 -132 116 -128 110 -128 164 1 54 23 218 41 304 l12 56 71 -18 c39 -9 347
-86 684 -170z m-5879 -303 c16 -19 3 -46 -24 -46 -32 0 -51 25 -35 45 16 19
44 19 59 1z m4681 -268 c0 -18 -6 -40 -13 -48 -22 -27 -126 -92 -160 -100 -46
-10 -101 9 -105 36 -3 23 37 78 72 96 28 15 144 46 179 47 24 1 27 -2 27 -31z
m420 -245 c-1 -59 -7 -106 -19 -141 -24 -70 -38 -83 -58 -57 -35 47 13 285 58
285 17 0 19 -8 19 -87z m-357 -52 c2 -10 2 -60 -1 -110 -4 -77 -2 -98 17 -144
23 -57 33 -141 19 -169 -8 -17 -65 -38 -102 -38 -17 0 -18 5 -11 53 18 116 9
249 -18 268 -4 3 -4 17 2 30 5 13 12 36 15 50 7 32 43 79 61 79 7 0 15 -9 18
-19z m290 -237 c8 -9 -11 -44 -23 -44 -6 0 -10 8 -10 18 0 27 18 41 33 26z
m-6231 -80 c65 -16 143 -38 283 -79 44 -13 125 -35 180 -50 107 -28 152 -40
395 -108 85 -24 193 -54 240 -67 165 -44 341 -92 520 -143 93 -27 320 -89 500
-137 63 -17 133 -37 155 -45 22 -7 96 -28 165 -46 69 -18 224 -60 345 -95 121
-34 267 -75 325 -89 115 -29 243 -66 249 -71 2 -2 -12 -41 -32 -86 -20 -46
-66 -155 -102 -243 -80 -194 -78 -189 -103 -245 -11 -25 -41 -97 -67 -160 -26
-63 -66 -160 -90 -215 -24 -55 -76 -179 -116 -275 -40 -96 -74 -177 -75 -179
-5 -6 -58 10 -354 104 -151 48 -331 104 -400 125 -69 21 -210 66 -315 100
-104 34 -203 65 -220 70 -40 12 -384 119 -415 130 -24 9 -304 96 -405 127 -27
9 -88 28 -135 43 -93 30 -294 93 -433 136 -76 23 -91 31 -115 65 -16 21 -40
48 -54 58 -28 22 -31 23 -293 106 -99 31 -205 64 -235 75 -108 36 -258 80
-274 80 -29 0 -26 7 112 202 59 84 115 164 124 178 10 14 38 54 63 90 25 36
66 94 91 130 25 36 83 119 129 185 46 66 118 171 160 233 86 126 82 125 197
96z m6760 -218 c43 -53 228 -271 318 -376 130 -150 239 -278 276 -324 23 -28
69 -82 101 -120 l60 -70 -286 -96 c-615 -208 -569 -190 -604 -231 -18 -20 -39
-46 -47 -58 -13 -18 -242 -102 -465 -171 -33 -10 -213 -71 -400 -135 -187 -64
-367 -125 -400 -135 -33 -11 -186 -62 -340 -114 -571 -194 -667 -226 -675
-226 -4 0 -45 66 -91 148 -45 81 -109 194 -142 251 -32 57 -73 129 -90 160
-17 31 -50 90 -74 131 -24 41 -49 83 -55 94 -5 10 -18 33 -28 50 -61 107 -189
333 -226 398 l-43 78 27 6 c38 9 742 188 882 224 63 16 178 45 255 64 77 19
194 49 260 67 66 18 145 38 175 44 30 7 145 36 255 65 110 29 225 58 255 65
30 6 80 19 110 28 61 18 395 103 480 122 54 12 290 74 380 100 76 22 85 20
132 -39z m-3262 -916 c73 -120 69 -81 71 -750 1 -333 4 -656 8 -719 l6 -114
30 24 c17 14 41 30 55 37 14 7 56 42 94 77 37 36 74 65 81 65 7 0 15 7 18 15
4 8 21 21 39 29 18 8 60 39 93 70 33 31 64 56 69 56 5 0 24 11 43 26 l33 25 9
-24 c14 -35 70 -86 108 -96 36 -10 104 2 137 24 11 8 30 15 41 15 11 0 79 21
150 46 277 97 337 117 535 184 113 38 324 110 470 159 146 50 371 127 500 171
129 43 287 97 350 119 63 22 116 38 118 37 1 -2 0 -456 -4 -1010 l-7 -1006
-56 -16 c-31 -8 -87 -25 -126 -36 -38 -11 -95 -27 -125 -34 -30 -7 -118 -31
-195 -54 -77 -22 -156 -45 -175 -49 -70 -17 -306 -82 -345 -95 -22 -8 -94 -28
-160 -46 -255 -69 -294 -80 -417 -115 -164 -46 -577 -160 -693 -192 -49 -13
-112 -30 -140 -38 -103 -29 -462 -127 -499 -136 -21 -5 -51 -16 -67 -24 -36
-19 -76 -19 -130 1 -24 9 -57 20 -74 24 -72 19 -258 73 -350 101 -284 88 -329
101 -660 199 -55 16 -167 50 -250 75 -82 26 -190 57 -240 70 -49 13 -119 34
-155 45 -98 32 -276 86 -360 110 -125 36 -272 80 -320 97 -25 9 -70 21 -100
28 -30 7 -66 18 -80 24 -14 6 -88 29 -165 51 -266 76 -268 77 -380 115 -27 9
-79 24 -115 33 -36 10 -69 20 -75 23 -5 4 -22 9 -37 13 l-28 6 0 454 0 454 33
12 c17 6 73 32 122 56 50 24 106 47 125 50 19 4 46 15 59 26 13 10 29 18 36
18 6 0 47 18 91 40 43 23 96 46 117 52 20 6 37 15 37 19 0 5 17 11 38 15 20 4
48 15 61 25 13 11 31 19 40 19 9 0 27 7 41 15 14 7 50 26 80 40 127 62 180 85
193 85 8 0 53 20 100 44 l85 44 73 -20 c40 -10 78 -23 84 -27 5 -5 42 -16 80
-26 39 -9 75 -20 80 -25 6 -4 33 -12 60 -19 70 -16 432 -127 665 -203 36 -12
81 -25 100 -29 19 -4 60 -16 90 -27 30 -10 94 -32 142 -47 147 -47 198 -26
251 102 16 37 42 100 59 138 60 135 103 235 163 380 31 75 91 215 161 372 8
17 14 34 14 38 0 4 6 21 14 38 8 18 20 50 26 72 18 60 94 245 101 245 4 0 26
-32 49 -70z"/>
<path d="M4570 5774 c-55 -11 -119 -36 -135 -54 -17 -19 -16 -20 9 -31 20 -10
38 -10 77 -1 83 20 132 16 159 -12 15 -17 36 -26 64 -28 29 -2 42 -8 44 -20 3
-14 -4 -18 -31 -18 -37 0 -47 -12 -47 -58 1 -51 21 -64 137 -83 59 -11 121
-19 136 -19 15 0 42 -8 60 -17 18 -10 57 -27 87 -38 48 -18 58 -27 80 -68 28
-54 46 -62 115 -50 47 8 51 11 63 48 21 63 11 127 -32 187 -81 117 -87 123
-149 151 -34 15 -78 32 -97 36 -19 5 -62 16 -95 25 -35 9 -98 16 -156 16 -62
0 -109 5 -131 14 -39 17 -120 27 -158 20z"/>
<path d="M3913 5752 c-20 -11 -33 -25 -33 -38 0 -11 -14 -39 -31 -62 -16 -22
-30 -42 -30 -44 0 -2 -2 -13 -6 -26 -4 -18 -11 -22 -26 -18 -11 3 -33 -2 -48
-10 -52 -26 -63 -76 -30 -131 41 -66 93 -49 138 44 26 54 31 58 65 61 31 3 46
13 88 60 28 31 54 68 57 81 6 23 -18 78 -41 93 -18 13 -69 8 -103 -10z"/>
<path d="M5312 4611 c4 -13 18 -16 19 -4 0 4 -5 9 -11 12 -7 2 -11 -2 -8 -8z"/>
</g>
</svg>
